# xmcd
#
# Track frame offsets:
#	150
#	19014
#	34130
#	55883
#	71675
#	88037
#	105892
#	126544
#	146213
#	168564
#	183991
#
# Disc length: 2789 seconds
#
# Revision: 0
# Processed by: cddbd v1.4PL0 Copyright (c) Steve Scherf et al.
# Submitted via: EasyCDDAExtractor 4.6.9.1
#
DISCID=9a0ae30b
DTITLE=Sons Of The Desert - Change
DYEAR=2000
DGENRE=Country
TTITLE0=Goodbye To Hello
TTITLE1=Albuquerque
TTITLE2=What I Did Right
TTITLE3=Everybody's Gotta Grow Up Sometime
TTITLE4=Too Far To Where You Are
TTITLE5=I Need To Be Wrong Again
TTITLE6=That's The Kind Of Love You're In
TTITLE7=Real Fine Love
TTITLE8=Blue Money
TTITLE9=Change
TTITLE10=Ride
EXTD=
EXTT0=
EXTT1=
EXTT2=
EXTT3=
EXTT4=
EXTT5=
EXTT6=
EXTT7=
EXTT8=
EXTT9=
EXTT10=
PLAYORDER=
